Normalized EMG Linear Envelopes
nRows=232
nColumns=4

endheader
time	 med_gas_r	  soleus_r	 tib_ant_r	
3.26008	  0.001938	  0.006637	  0.001165	
3.29335	  0.001956	  0.005770	  0.001187	
3.32661	  0.001999	  0.004910	  0.001196	
3.35988	  0.002061	  0.004161	  0.001189	
3.39315	  0.002131	  0.003570	  0.001168	
3.42641	  0.002195	  0.003146	  0.001137	
3.45968	  0.002247	  0.002880	  0.001100	
3.49294	  0.002281	  0.002748	  0.001064	
3.52621	  0.002298	  0.002716	  0.001035	
3.55948	  0.002293	  0.002744	  0.001014	
3.59274	  0.002265	  0.002804	  0.000999	
3.62601	  0.002228	  0.002875	  0.000989	
3.65927	  0.002195	  0.002942	  0.000987	
3.69254	  0.002175	  0.002999	  0.000995	
3.72581	  0.002164	  0.003045	  0.001011	
3.75907	  0.002155	  0.003081	  0.001035	
3.79234	  0.002144	  0.003112	  0.001067	
3.8256	  0.002125	  0.003139	  0.001106	
3.85887	  0.002102	  0.003161	  0.001148	
3.89214	  0.002084	  0.003172	  0.001185	
3.9254	  0.002089	  0.003177	  0.001207	
3.95867	  0.002130	  0.003185	  0.001213	
3.99194	  0.002209	  0.003204	  0.001205	
4.0252	  0.002309	  0.003237	  0.001185	
4.05847	  0.002407	  0.003283	  0.001158	
4.09173	  0.002478	  0.003354	  0.001133	
4.125	  0.002501	  0.003465	  0.001116	
4.15827	  0.002480	  0.003632	  0.001107	
4.19153	  0.002431	  0.003872	  0.001110	
4.2248	  0.002364	  0.004197	  0.001126	
4.25806	  0.002281	  0.004613	  0.001157	
4.29133	  0.002201	  0.005103	  0.001199	
4.3246	  0.002143	  0.005606	  0.001245	
4.35786	  0.002114	  0.006040	  0.001292	
4.39113	  0.002107	  0.006303	  0.001336	
4.4244	  0.002119	  0.006325	  0.001366	
4.45766	  0.002146	  0.006248	  0.001373	
4.49093	  0.002181	  0.006192	  0.001362	
4.52419	  0.002216	  0.006185	  0.001335	
4.55746	  0.002232	  0.006192	  0.001305	
4.59073	  0.002213	  0.006136	  0.001288	
4.62399	  0.002165	  0.005914	  0.001288	
4.65726	  0.002102	  0.005585	  0.001297	
4.69052	  0.002037	  0.005247	  0.001307	
4.72379	  0.001985	  0.004963	  0.001305	
4.75706	  0.001956	  0.004760	  0.001277	
4.79032	  0.001953	  0.004618	  0.001204	
4.82359	  0.001973	  0.004470	  0.001073	
4.85685	  0.002008	  0.004232	  0.000871	
4.89012	  0.002051	  0.003933	  0.000591	
4.92339	  0.002090	  0.003627	  0.000253	
4.95665	  0.002116	  0.003348	 -0.000087	
4.98992	  0.002130	  0.003123	 -0.000342	
5.02319	  0.002131	  0.002984	 -0.000385	
5.05645	  0.002119	  0.002963	 -0.000046	
5.08972	  0.002113	  0.003108	  0.000890	
5.12298	  0.002140	  0.003476	  0.002677	
5.15625	  0.002234	  0.004137	  0.005582	
5.18952	  0.002427	  0.005157	  0.009825	
5.22278	  0.002733	  0.006611	  0.015598	
5.25605	  0.003159	  0.008653	  0.023305	
5.28931	  0.003703	  0.011396	  0.033371	
5.32258	  0.004341	  0.014785	  0.045644	
5.35585	  0.005012	  0.018619	  0.059365	
5.38911	  0.005645	  0.022666	  0.073306	
5.42238	  0.006173	  0.026537	  0.086097	
5.45565	  0.006584	  0.029900	  0.096977	
5.48891	  0.006907	  0.032492	  0.105518	
5.52218	  0.007233	  0.034445	  0.112769	
5.55544	  0.007598	  0.035948	  0.119798	
5.58871	  0.008009	  0.036985	  0.127106	
5.62198	  0.008509	  0.037903	  0.135431	
5.65524	  0.009106	  0.039134	  0.145607	
5.68851	  0.009738	  0.040784	  0.157729	
5.72177	  0.010361	  0.042783	  0.171367	
5.75504	  0.010973	  0.045198	  0.185569	
5.78831	  0.011548	  0.048094	  0.198932	
5.82157	  0.012028	  0.051251	  0.210954	
5.85484	  0.012391	  0.054412	  0.221484	
5.8881	  0.012616	  0.057413	  0.230388	
5.92137	  0.012703	  0.060219	  0.237728	
5.95464	  0.012674	  0.062645	  0.243108	
5.9879	  0.012555	  0.064375	  0.244789	
6.02117	  0.012434	  0.065482	  0.243062	
6.05444	  0.012424	  0.066514	  0.239961	
6.0877	  0.012622	  0.068006	  0.238599	
6.12097	  0.013106	  0.070407	  0.241729	
6.15423	  0.013939	  0.074214	  0.250376	
6.1875	  0.015179	  0.079805	  0.264431	
6.22077	  0.016818	  0.087219	  0.284411	
6.25403	  0.018774	  0.096072	  0.309641	
6.2873	  0.020853	  0.105573	  0.337813	
6.32056	  0.022749	  0.114288	  0.365929	
6.35383	  0.024269	  0.121468	  0.391818	
6.3871	  0.025227	  0.127034	  0.414207	
6.42036	  0.025473	  0.130613	  0.431693	
6.45363	  0.025190	  0.132525	  0.444046	
6.4869	  0.024662	  0.133399	  0.451391	
6.52016	  0.024021	  0.133077	  0.453499	
6.55343	  0.023413	  0.131319	  0.451358	
6.58669	  0.023043	  0.129147	  0.445844	
6.61996	  0.023066	  0.128047	  0.439398	
6.65323	  0.023586	  0.129242	  0.434285	
6.68649	  0.024593	  0.133128	  0.434204	
6.71976	  0.026094	  0.139789	  0.442321	
6.75302	  0.028078	  0.148941	  0.460701	
6.78629	  0.030336	  0.159306	  0.488304	
6.81956	  0.032563	  0.169369	  0.521393	
6.85282	  0.034559	  0.178227	  0.554917	
6.88609	  0.036240	  0.185521	  0.586726	
6.91935	  0.037575	  0.191232	  0.619613	
6.95262	  0.038645	  0.195675	  0.654791	
6.98589	  0.039505	  0.198789	  0.691164	
7.01915	  0.040284	  0.200400	  0.728221	
7.05242	  0.041154	  0.201047	  0.767378	
7.08569	  0.042393	  0.202143	  0.807139	
7.11895	  0.044147	  0.204907	  0.844569	
7.15222	  0.046209	  0.209015	  0.877453	
7.18548	  0.048235	  0.212597	  0.905261	
7.21875	  0.049977	  0.214379	  0.928446	
7.25202	  0.051293	  0.214717	  0.949027	
7.28528	  0.051969	  0.214366	  0.964023	
7.31855	  0.051858	  0.213682	  0.967041	
7.35181	  0.051137	  0.213141	  0.960084	
7.38508	  0.050099	  0.213175	  0.947009	
7.41835	  0.049021	  0.213163	  0.931640	
7.45161	  0.048040	  0.212528	  0.917411	
7.48488	  0.047113	  0.210229	  0.904349	
7.51815	  0.046360	  0.206202	  0.889971	
7.55141	  0.045940	  0.201456	  0.875446	
7.58468	  0.045728	  0.195933	  0.863008	
7.61794	  0.045452	  0.189759	  0.849297	
7.65121	  0.044838	  0.183694	  0.829173	
7.68448	  0.043669	  0.177424	  0.802806	
7.71774	  0.042174	  0.171459	  0.774450	
7.75101	  0.040469	  0.165734	  0.745319	
7.78427	  0.038876	  0.160960	  0.719386	
7.81754	  0.037909	  0.158283	  0.702584	
7.85081	  0.037677	  0.157241	  0.698737	
7.88407	  0.038111	  0.157475	  0.705420	
7.91734	  0.039204	  0.159670	  0.717822	
7.9506	  0.040772	  0.163917	  0.730550	
7.98387	  0.042669	  0.170219	  0.740452	
8.01714	  0.044813	  0.178348	  0.747415	
8.0504	  0.046799	  0.186558	  0.749212	
8.08367	  0.048288	  0.193436	  0.742004	
8.11694	  0.049327	  0.199473	  0.727433	
8.1502	  0.050112	  0.205399	  0.711958	
8.18347	  0.050874	  0.211308	  0.703481	
8.21673	  0.051720	  0.216946	  0.707094	
8.25	  0.052658	  0.222090	  0.723148	
8.28327	  0.053642	  0.226290	  0.747292	
8.31653	  0.054667	  0.229336	  0.770908	
8.3498	  0.055796	  0.231401	  0.785903	
8.38306	  0.057007	  0.232595	  0.794107	
8.41633	  0.057983	  0.231810	  0.800743	
8.4496	  0.058088	  0.227184	  0.806317	
8.48286	  0.057004	  0.218212	  0.810645	
8.51613	  0.054606	  0.205466	  0.815372	
8.5494	  0.051320	  0.190545	  0.824841	
8.58266	  0.048061	  0.177173	  0.838169	
8.61593	  0.045405	  0.167851	  0.851559	
8.64919	  0.043408	  0.163285	  0.860147	
8.68246	  0.042092	  0.163050	  0.862493	
8.71573	  0.041486	  0.165743	  0.858509	
8.74899	  0.041540	  0.169267	  0.848722	
8.78226	  0.042187	  0.172757	  0.833231	
8.81552	  0.043405	  0.176459	  0.815661	
8.84879	  0.045058	  0.180955	  0.801962	
8.88206	  0.046940	  0.187370	  0.794515	
8.91532	  0.049118	  0.196377	  0.793287	
8.94859	  0.051585	  0.206769	  0.799107	
8.98185	  0.053975	  0.215805	  0.810874	
9.01512	  0.055921	  0.221790	  0.826381	
9.04839	  0.057372	  0.223757	  0.841051	
9.08165	  0.058683	  0.222296	  0.853946	
9.11492	  0.059902	  0.218168	  0.867203	
9.14819	  0.060553	  0.211501	  0.880006	
9.18145	  0.060333	  0.204023	  0.885938	
9.21472	  0.059434	  0.197813	  0.883113	
9.24798	  0.057808	  0.192625	  0.871797	
9.28125	  0.055424	  0.187517	  0.857339	
9.31452	  0.052663	  0.183370	  0.846031	
9.34778	  0.049923	  0.181088	  0.837541	
9.38105	  0.047590	  0.181196	  0.828037	
9.41431	  0.045915	  0.183438	  0.814530	
9.44758	  0.044835	  0.187259	  0.796826	
9.48085	  0.044074	  0.191801	  0.770918	
9.51411	  0.043381	  0.195549	  0.731691	
9.54738	  0.042400	  0.195858	  0.672590	
9.58065	  0.041039	  0.191179	  0.592054	
9.61391	  0.039615	  0.182877	  0.495544	
9.64718	  0.038780	  0.174671	  0.390918	
9.68044	  0.039004	  0.169863	  0.288504	
9.71371	  0.040343	  0.170086	  0.198694	
9.74698	  0.042074	  0.173786	  0.126603	
9.78024	  0.042585	  0.175741	  0.072935	
9.81351	  0.040488	  0.172309	  0.035932	
9.84677	  0.036321	  0.165786	  0.012669	
9.88004	  0.031531	  0.159383	  0.000094	
9.91331	  0.027087	  0.154352	 -0.004712	
9.94657	  0.023222	  0.149600	 -0.004304	
9.97984	  0.019814	  0.143995	 -0.000850	
10.0131	  0.016754	  0.136659	  0.003950	
10.0464	  0.013960	  0.126183	  0.008907	
10.0796	  0.011460	  0.113304	  0.013124	
10.1129	  0.009332	  0.099859	  0.015816	
10.1462	  0.007633	  0.086675	  0.016596	
10.1794	  0.006343	  0.073984	  0.015731	
10.2127	  0.005390	  0.062313	  0.013894	
10.246	  0.004703	  0.052598	  0.011740	
10.2792	  0.004218	  0.045027	  0.009712	
10.3125	  0.003877	  0.039021	  0.008062	
10.3458	  0.003619	  0.034064	  0.006862	
10.379	  0.003411	  0.029721	  0.006146	
10.4123	  0.003235	  0.025828	  0.005898	
10.4456	  0.003084	  0.022207	  0.006010	
10.4788	  0.002947	  0.018770	  0.006295	
10.5121	  0.002828	  0.015705	  0.006495	
10.5454	  0.002733	  0.013173	  0.006395	
10.5786	  0.002667	  0.011136	  0.006127	
10.6119	  0.002620	  0.009478	  0.005857	
10.6452	  0.002589	  0.008029	  0.005644	
10.6784	  0.002570	  0.006815	  0.005445	
10.7117	  0.002569	  0.005900	  0.005211	
10.745	  0.002587	  0.005270	  0.004877	
10.7782	  0.002612	  0.004839	  0.004453	
10.8115	  0.002642	  0.004525	  0.004025	
10.8448	  0.002677	  0.004293	  0.003658	
10.878	  0.002722	  0.004121	  0.003373	
10.9113	  0.002772	  0.003998	  0.003196	
10.9446	  0.002819	  0.003913	  0.003120	
